<svg width="16" height="16" viewBox="0 0 16 16" fill="none" xmlns="http://www.w3.org/2000/svg">
<g id="time-left 1" clip-path="url(#clip0_236_314)">
<g id="Group">
<g id="Layer_2_16_">
<g id="Group_2">
<path id="Vector" d="M9.6162 14.5732C9.48426 14.6061 9.34975 14.6353 9.21623 14.6598C8.8672 14.7247 8.63646 15.0604 8.70101 15.4098C8.7329 15.5816 8.83051 15.7248 8.96303 15.8182C9.0996 15.9144 9.27343 15.9578 9.45056 15.9248C9.60956 15.8953 9.7698 15.8606 9.92705 15.8214C10.2717 15.7356 10.4817 15.3864 10.3957 15.0419C10.3099 14.6971 9.96107 14.4873 9.6162 14.5732Z" fill="#ECF028"/>
<path id="Vector_2" d="M14.3727 5.95178C14.4178 6.08756 14.5038 6.19842 14.6125 6.27501C14.7736 6.38848 14.9844 6.42665 15.1855 6.36014C15.5228 6.24815 15.7055 5.88447 15.594 5.54738C15.5431 5.3937 15.4867 5.23955 15.4266 5.08946C15.2947 4.75962 14.9206 4.59903 14.5906 4.73097C14.2609 4.86284 14.1002 5.23707 14.2323 5.56701C14.2828 5.69317 14.3301 5.82266 14.3727 5.95178Z" fill="#ECF028"/>
<path id="Vector_3" d="M11.7063 13.6548C11.5928 13.7297 11.4757 13.8022 11.3577 13.8701C11.0499 14.0477 10.9445 14.4411 11.122 14.7487C11.1702 14.8324 11.2344 14.9008 11.3083 14.9531C11.5067 15.0927 11.7762 15.1136 12.0005 14.9844C12.1408 14.9035 12.2802 14.8174 12.4154 14.7281C12.7116 14.5323 12.7932 14.1333 12.5974 13.8369C12.4016 13.5403 12.0027 13.4589 11.7063 13.6548Z" fill="#ECF028"/>
<path id="Vector_4" d="M15.9939 7.74834C15.9799 7.39333 15.6809 7.11701 15.3257 7.13087C14.9711 7.14487 14.6946 7.44399 14.7085 7.79887C14.7138 7.93455 14.7152 8.07226 14.7121 8.20781C14.7071 8.43044 14.816 8.62889 14.9852 8.74817C15.086 8.81916 15.2083 8.86212 15.341 8.86514C15.696 8.87302 15.9902 8.59144 15.9981 8.23625C16.0016 8.07429 16.0003 7.9102 15.9939 7.74834Z" fill="#ECF028"/>
<path id="Vector_5" d="M14.2677 11.9629C13.9831 11.7493 13.5803 11.8073 13.3671 12.0914C13.2855 12.2003 13.1995 12.3077 13.1114 12.4112C12.8813 12.6816 12.9138 13.0876 13.1842 13.3179C13.1996 13.331 13.2152 13.343 13.2313 13.3542C13.5001 13.5437 13.8736 13.5002 14.0909 13.2452C14.196 13.1217 14.2985 12.9933 14.3961 12.8633C14.6093 12.5792 14.5516 12.1762 14.2677 11.9629Z" fill="#ECF028"/>
<path id="Vector_6" d="M15.2132 9.63754C14.8743 9.53126 14.5133 9.71994 14.4071 10.0589C14.3665 10.1884 14.3214 10.3185 14.2728 10.4459C14.166 10.7264 14.2683 11.0351 14.5029 11.2005C14.5459 11.2307 14.5933 11.2564 14.6448 11.2758C14.9767 11.4025 15.3483 11.236 15.4748 10.904C15.5325 10.7524 15.5861 10.5976 15.6346 10.4437C15.7407 10.1047 15.5521 9.74381 15.2132 9.63754Z" fill="#ECF028"/>
<path id="Vector_7" d="M6.80994 14.6657C6.23488 14.5624 5.68324 14.3866 5.16014 14.1414C5.15395 14.1381 5.14841 14.1344 5.14191 14.1315C5.01864 14.0735 4.89558 14.0113 4.77631 13.9464C4.77589 13.9459 4.77514 13.9456 4.77448 13.9453C4.55563 13.8248 4.34205 13.6914 4.13455 13.5454C1.10886 11.414 0.381361 7.21836 2.51288 4.1927C2.97637 3.53502 3.53727 2.98634 4.16258 2.55146C4.17029 2.5461 4.17799 2.54077 4.18563 2.53537C6.38913 1.01709 9.38116 0.914764 11.7209 2.47494L11.2184 3.20102C11.0787 3.40312 11.1646 3.5504 11.4092 3.52838L13.5921 3.33296C13.837 3.31095 13.9834 3.09911 13.9176 2.86262L13.3314 0.750637C13.2658 0.51387 13.0978 0.485529 12.9579 0.687593L12.4542 1.4154C10.7371 0.26276 8.67766 -0.176758 6.63354 0.177704C6.42765 0.213336 6.22466 0.256948 6.02446 0.307713C6.02291 0.307988 6.02167 0.30816 6.02043 0.308435C6.01269 0.310327 6.00485 0.312838 5.99732 0.314936C4.23464 0.767593 2.69672 1.79566 1.59931 3.26249C1.59006 3.27346 1.58054 3.28419 1.5718 3.29612C1.53531 3.34527 1.49909 3.39555 1.46363 3.44584C1.40564 3.52825 1.34848 3.61272 1.29379 3.69719C1.28695 3.70737 1.28172 3.71772 1.27574 3.72801C0.370148 5.13131 -0.066653 6.75366 0.00825673 8.40532C0.0084287 8.41076 0.00811916 8.41623 0.00825673 8.4218C0.0155138 8.58314 0.0283083 8.74672 0.0456772 8.90775C0.0466058 8.91813 0.0489102 8.92797 0.0506643 8.93836C0.0686179 9.10028 0.0911458 9.26259 0.119383 9.42486C0.406365 11.0805 1.18738 12.5703 2.3577 13.7296C2.36041 13.7323 2.36324 13.7353 2.36599 13.7381C2.36695 13.7392 2.36802 13.7397 2.36894 13.7407C2.68337 14.0508 3.02538 14.3377 3.39364 14.597C4.35735 15.2761 5.43048 15.725 6.58294 15.9318C6.93262 15.9946 7.26666 15.7618 7.32939 15.4123C7.39209 15.0626 7.15952 14.7283 6.80994 14.6657Z" fill="#ECF028"/>
<path id="Vector_8" d="M7.60531 2.86157C7.31767 2.86157 7.08469 3.09476 7.08469 3.38199V8.56675L11.8266 11.018C11.9029 11.0575 11.9846 11.0762 12.065 11.0762C12.2534 11.0762 12.4353 10.9736 12.5277 10.7946C12.6596 10.5392 12.5598 10.2255 12.3044 10.0936L8.12534 7.93301V3.38199C8.12531 3.09476 7.8926 2.86157 7.60531 2.86157Z" fill="#ECF028"/>
</g>
</g>
</g>
</g>
<defs>
<clipPath id="clip0_236_314">
<rect width="16" height="16" fill="white"/>
</clipPath>
</defs>
</svg>
